<?xml version="1.0" encoding="UTF-8" standalone="no"?>
<!DOCTYPE svg PUBLIC "-//W3C//DTD SVG 1.1//EN" "http://www.w3.org/Graphics/SVG/1.1/DTD/svg11.dtd">
<svg xmlns:dc="http://purl.org/dc/elements/1.1/" version="1.1" xmlns:xl="http://www.w3.org/1999/xlink" xmlns="http://www.w3.org/2000/svg" viewBox="1672.441 524.40946 198.4252 255.11812" width="198.4252" height="255.11812">
  <defs/>
  <metadata> Produced by OmniGraffle 7.17.5\n2020-11-13 14:43:40 +0000</metadata>
  <g id="Canvas_1" stroke-opacity="1" stroke-dasharray="none" stroke="none" fill="none" fill-opacity="1">
    <title>Canvas 1</title>
    <g id="Canvas_1_Layer_1">
      <title>Layer 1</title>
      <g id="Graphic_55"/>
      <g id="Graphic_57">
        <path d="M 1679.5276 722.8347 L 1849.6064 722.8347 C 1853.5202 722.8347 1856.693 726.00744 1856.693 729.9213 L 1856.693 729.9213 C 1856.693 733.8351 1853.5202 737.0079 1849.6064 737.0079 L 1679.5276 737.0079 C 1675.6138 737.0079 1672.441 733.8351 1672.441 729.9213 L 1672.441 729.9213 C 1672.441 726.00744 1675.6138 722.8347 1679.5276 722.8347 Z" fill="black"/>
      </g>
      <g id="Graphic_58">
        <path d="M 1679.5276 680.315 L 1863.7796 680.315 C 1867.6934 680.315 1870.8662 683.48776 1870.8662 687.4016 L 1870.8662 687.4016 C 1870.8662 691.3154 1867.6934 694.4882 1863.7796 694.4882 L 1679.5276 694.4882 C 1675.6138 694.4882 1672.441 691.3154 1672.441 687.4016 L 1672.441 687.4016 C 1672.441 683.48776 1675.6138 680.315 1679.5276 680.315 Z" fill="black"/>
      </g>
      <g id="Graphic_59">
        <path d="M 1679.5276 637.7953 L 1764.567 637.7953 C 1768.4808 637.7953 1771.6536 640.9681 1771.6536 644.8819 L 1771.6536 644.8819 C 1771.6536 648.79574 1768.4808 651.9685 1764.567 651.9685 L 1679.5276 651.9685 C 1675.6138 651.9685 1672.441 648.79574 1672.441 644.8819 L 1672.441 644.8819 C 1672.441 640.9681 1675.6138 637.7953 1679.5276 637.7953 Z" fill="black"/>
      </g>
      <g id="Graphic_60">
        <path d="M 1679.5276 595.2756 L 1778.7402 595.2756 C 1782.654 595.2756 1785.8268 598.4484 1785.8268 602.3622 L 1785.8268 602.36224 C 1785.8268 606.27606 1782.654 609.4488 1778.7402 609.4488 L 1679.5276 609.4488 C 1675.6138 609.4488 1672.441 606.27606 1672.441 602.36224 L 1672.441 602.3622 C 1672.441 598.4484 1675.6138 595.2756 1679.5276 595.2756 Z" fill="black"/>
      </g>
      <g id="Graphic_56">
        <path d="M 1835.4331 555.67237 L 1785.8268 641.593 L 1783.928 673.2284 L 1810.3756 655.7662 L 1859.9819 569.8456 Z" fill="white"/>
        <path d="M 1835.4331 555.67237 L 1785.8268 641.593 L 1783.928 673.2284 L 1810.3756 655.7662 L 1859.9819 569.8456 Z" stroke="black" stroke-linecap="round" stroke-linejoin="round" stroke-width="14.1732"/>
      </g>
      <g id="Graphic_61">
        <path d="M 1849.6063 637.7953 L 1863.7796 637.7953 C 1867.6934 637.7953 1870.8662 640.9681 1870.8662 644.8819 L 1870.8662 644.8819 C 1870.8662 648.79574 1867.6934 651.9685 1863.7796 651.9685 L 1849.6063 651.9685 C 1845.6925 651.9685 1842.5197 648.79574 1842.5197 644.8819 L 1842.5197 644.8819 C 1842.5197 640.9681 1845.6925 637.7953 1849.6063 637.7953 Z" fill="black"/>
      </g>
    </g>
  </g>
</svg>
