<?xml version="1.0" encoding="UTF-8" standalone="no"?>
<!DOCTYPE svg PUBLIC "-//W3C//DTD SVG 1.1//EN" "http://www.w3.org/Graphics/SVG/1.1/DTD/svg11.dtd">
<svg xmlns:dc="http://purl.org/dc/elements/1.1/" version="1.1" xmlns:xl="http://www.w3.org/1999/xlink" xmlns="http://www.w3.org/2000/svg" viewBox="-24 104 16 18" width="16" height="18">
  <defs/>
  <metadata> Produced by OmniGraffle 7.17.5\n2020-11-15 02:22:13 +0000</metadata>
  <g id="filter" stroke-opacity="1" stroke-dasharray="none" stroke="none" fill="none" fill-opacity="1">
    <title>filter</title>
    <g id="filter_Layer_1">
      <title>Layer 1</title>
      <g id="Graphic_7">
        <path d="M -23.000002 107 L -8.999998 107 C -8.447714 107 -8 107.44771 -8 108 L -8 108 C -8 108.55229 -8.447714 109 -8.999998 109 L -23.000002 109 C -23.552286 109 -24 108.55229 -24 108 L -24 108 C -24 107.44771 -23.552286 107 -23.000002 107 Z" fill="black"/>
      </g>
      <g id="Graphic_6">
        <path d="M -20.000002 112 L -11.999998 112 C -11.447714 112 -11 112.44771 -11 113 L -11 113 C -11 113.55229 -11.447714 114 -11.999998 114 L -20.000002 114 C -20.552286 114 -21 113.55229 -21 113 L -21 113 C -21 112.44771 -20.552286 112 -20.000002 112 Z" fill="black"/>
      </g>
      <g id="Graphic_5">
        <path d="M -17.000002 117 L -14.999998 117 C -14.447714 117 -14 117.44771 -14 118 L -14 118 C -14 118.55229 -14.447714 119 -14.999998 119 L -17.000002 119 C -17.552286 119 -18 118.55229 -18 118 L -18 118 C -18 117.44771 -17.552286 117 -17.000002 117 Z" fill="black"/>
      </g>
    </g>
  </g>
</svg>
