<?xml version="1.0" encoding="UTF-8" standalone="no"?>
<!DOCTYPE svg PUBLIC "-//W3C//DTD SVG 1.1//EN" "http://www.w3.org/Graphics/SVG/1.1/DTD/svg11.dtd">
<svg xmlns:dc="http://purl.org/dc/elements/1.1/" version="1.1" xmlns:xl="http://www.w3.org/1999/xlink" xmlns="http://www.w3.org/2000/svg" viewBox="552.7559 212.59843 198.4252 255.11812" width="198.4252" height="255.11812">
  <defs/>
  <metadata> Produced by OmniGraffle 7.17.5\n2020-11-13 00:56:33 +0000</metadata>
  <g id="Canvas_1" stroke-opacity="1" stroke-dasharray="none" stroke="none" fill="none" fill-opacity="1">
    <title>Canvas 1</title>
    <g id="Canvas_1_Layer_1">
      <title>Layer 1</title>
      <g id="Graphic_10"/>
      <g id="Graphic_9">
        <path d="M 566.9291 255.11812 L 737.0079 255.11812 C 744.8356 255.11812 751.1811 261.46367 751.1811 269.29132 L 751.1811 269.29138 C 751.1811 277.11902 744.8356 283.46457 737.0079 283.46457 L 566.9291 283.46457 C 559.1015 283.46457 552.7559 277.11902 552.7559 269.29138 L 552.7559 269.29132 C 552.7559 261.46367 559.1015 255.11812 566.9291 255.11812 Z" fill="black"/>
      </g>
      <g id="Graphic_8">
        <path d="M 595.2756 325.98426 L 708.6615 325.98426 C 716.4891 325.98426 722.8347 332.3298 722.8347 340.15746 L 722.8347 340.1575 C 722.8347 347.98516 716.4891 354.3307 708.6615 354.3307 L 595.2756 354.3307 C 587.44794 354.3307 581.1024 347.98516 581.1024 340.1575 L 581.1024 340.15746 C 581.1024 332.3298 587.44794 325.98426 595.2756 325.98426 Z" fill="black"/>
      </g>
      <g id="Graphic_7">
        <path d="M 623.622 396.8504 L 680.315 396.8504 C 688.14265 396.8504 694.4882 403.19596 694.4882 411.0236 L 694.4882 411.02366 C 694.4882 418.8513 688.14265 425.19686 680.315 425.19686 L 623.622 425.19686 C 615.7944 425.19686 609.4488 418.8513 609.4488 411.02366 L 609.4488 411.0236 C 609.4488 403.19596 615.7944 396.8504 623.622 396.8504 Z" fill="black"/>
      </g>
    </g>
  </g>
</svg>
