<?xml version="1.0" encoding="UTF-8" standalone="no"?>
<!DOCTYPE svg PUBLIC "-//W3C//DTD SVG 1.1//EN" "http://www.w3.org/Graphics/SVG/1.1/DTD/svg11.dtd">
<svg xmlns:dc="http://purl.org/dc/elements/1.1/" version="1.1" xmlns:xl="http://www.w3.org/1999/xlink" xmlns="http://www.w3.org/2000/svg" viewBox="-1 160 14 18" width="14" height="18">
  <defs/>
  <metadata> Produced by OmniGraffle 7.17.5\n2020-11-14 21:15:21 +0000</metadata>
  <g id="Canvas_1" stroke-opacity="1" stroke-dasharray="none" stroke="none" fill="none" fill-opacity="1">
    <title>Canvas 1</title>
    <g id="Canvas_1_Layer_1">
      <title>Layer 1</title>
      <g id="Graphic_38"/>
      <g id="Graphic_37">
        <path d="M -2052254e-12 162 L 12.000002 162 C 12.552286 162 13 162.44771 13 163 L 13 163 C 13 163.55229 12.552286 164 12.000002 164 L -2052254e-12 164 C -.5522857 164 -1 163.55229 -1 163 L -1 163 C -1 162.44771 -.5522857 162 -2052254e-12 162 Z" fill="black"/>
      </g>
      <g id="Graphic_36">
        <path d="M 1.999998 168 L 10.000002 168 C 10.552286 168 11 168.44771 11 169 L 11 169 C 11 169.55229 10.552286 170 10.000002 170 L 1.999998 170 C 1.4477143 170 1 169.55229 1 169 L 1 169 C 1 168.44771 1.4477143 168 1.999998 168 Z" fill="black"/>
      </g>
      <g id="Graphic_35">
        <path d="M 3.999998 174 L 8.000002 174 C 8.552286 174 9 174.44771 9 175 L 9 175 C 9 175.55229 8.552286 176 8.000002 176 L 3.999998 176 C 3.4477143 176 3 175.55229 3 175 L 3 175 C 3 174.44771 3.4477143 174 3.999998 174 Z" fill="black"/>
      </g>
    </g>
  </g>
</svg>
