<?xml version="1.0" encoding="UTF-8" standalone="no"?>
<!DOCTYPE svg PUBLIC "-//W3C//DTD SVG 1.1//EN" "http://www.w3.org/Graphics/SVG/1.1/DTD/svg11.dtd">
<svg xmlns:dc="http://purl.org/dc/elements/1.1/" xmlns:xl="http://www.w3.org/1999/xlink" xmlns="http://www.w3.org/2000/svg" version="1.1" viewBox="552.7559 212.59843 198.4252 255.11812" width="198.4252" height="255.11812">
  <defs/>
  <metadata> Produced by OmniGraffle 7.17.5\n2020-11-12 00:40:50 +0000</metadata>
  <g id="Canvas_1" fill="none" stroke="none" stroke-opacity="1" fill-opacity="1" stroke-dasharray="none">
    <title>Canvas 1</title>
    <g id="Canvas_1_Layer_1">
      <title>Layer 1</title>
      <g id="Graphic_10"/>
      <g id="Graphic_9">
        <path d="M 566.9291 240.9449 L 737.0079 240.9449 C 744.8356 240.9449 751.1811 247.29045 751.1811 255.1181 L 751.1811 255.11815 C 751.1811 262.9458 744.8356 269.29135 737.0079 269.29135 L 566.9291 269.29135 C 559.1015 269.29135 552.7559 262.9458 552.7559 255.11815 L 552.7559 255.1181 C 552.7559 247.29045 559.1015 240.9449 566.9291 240.9449 Z" fill="black"/>
      </g>
      <g id="Graphic_8">
        <path d="M 595.2756 325.98426 L 708.6615 325.98426 C 716.4891 325.98426 722.8347 332.3298 722.8347 340.15746 L 722.8347 340.1575 C 722.8347 347.98516 716.4891 354.3307 708.6615 354.3307 L 595.2756 354.3307 C 587.44794 354.3307 581.1024 347.98516 581.1024 340.1575 L 581.1024 340.15746 C 581.1024 332.3298 587.44794 325.98426 595.2756 325.98426 Z" fill="black"/>
      </g>
      <g id="Graphic_7">
        <path d="M 623.622 411.02363 L 680.315 411.02363 C 688.14265 411.02363 694.4882 417.3692 694.4882 425.19683 L 694.4882 425.1969 C 694.4882 433.02453 688.14265 439.3701 680.315 439.3701 L 623.622 439.3701 C 615.7944 439.3701 609.4488 433.02453 609.4488 425.1969 L 609.4488 425.19683 C 609.4488 417.3692 615.7944 411.02363 623.622 411.02363 Z" fill="black"/>
      </g>
    </g>
  </g>
</svg>
