<?xml version="1.0" encoding="UTF-8" standalone="no"?>
<!DOCTYPE svg PUBLIC "-//W3C//DTD SVG 1.1//EN" "http://www.w3.org/Graphics/SVG/1.1/DTD/svg11.dtd">
<svg xmlns:dc="http://purl.org/dc/elements/1.1/" version="1.1" xmlns:xl="http://www.w3.org/1999/xlink" xmlns="http://www.w3.org/2000/svg" viewBox="-20 160 14 18" width="14" height="18">
  <defs/>
  <metadata> Produced by OmniGraffle 7.17.5\n2020-11-14 21:15:21 +0000</metadata>
  <g id="Canvas_1" stroke-opacity="1" stroke-dasharray="none" stroke="none" fill="none" fill-opacity="1">
    <title>Canvas 1</title>
    <g id="Canvas_1_Layer_1">
      <title>Layer 1</title>
      <g id="Graphic_42"/>
      <g id="Graphic_41">
        <path d="M -19.000002 162 L -6.999998 162 C -6.447714 162 -6 162.44771 -6 163 L -6 163 C -6 163.55229 -6.447714 164 -6.999998 164 L -19.000002 164 C -19.552286 164 -20 163.55229 -20 163 L -20 163 C -20 162.44771 -19.552286 162 -19.000002 162 Z" fill="black"/>
      </g>
      <g id="Graphic_40">
        <path d="M -19.000002 168 L -6.999998 168 C -6.447714 168 -6 168.44771 -6 169 L -6 169 C -6 169.55229 -6.447714 170 -6.999998 170 L -19.000002 170 C -19.552286 170 -20 169.55229 -20 169 L -20 169 C -20 168.44771 -19.552286 168 -19.000002 168 Z" fill="black"/>
      </g>
      <g id="Graphic_39">
        <path d="M -19.000002 174 L -6.999998 174 C -6.447714 174 -6 174.44771 -6 175 L -6 175 C -6 175.55229 -6.447714 176 -6.999998 176 L -19.000002 176 C -19.552286 176 -20 175.55229 -20 175 L -20 175 C -20 174.44771 -19.552286 174 -19.000002 174 Z" fill="black"/>
      </g>
    </g>
  </g>
</svg>
