<?xml version="1.0" encoding="UTF-8" standalone="no"?>
<!DOCTYPE svg PUBLIC "-//W3C//DTD SVG 1.1//EN" "http://www.w3.org/Graphics/SVG/1.1/DTD/svg11.dtd">
<svg xmlns:dc="http://purl.org/dc/elements/1.1/" version="1.1" xmlns:xl="http://www.w3.org/1999/xlink" xmlns="http://www.w3.org/2000/svg" viewBox="283.46457 212.59843 198.4252 255.11812" width="198.4252" height="255.11812">
  <defs/>
  <metadata> Produced by OmniGraffle 7.17.5\n2020-11-13 00:56:33 +0000</metadata>
  <g id="Canvas_1" stroke-opacity="1" stroke-dasharray="none" stroke="none" fill="none" fill-opacity="1">
    <title>Canvas 1</title>
    <g id="Canvas_1_Layer_1">
      <title>Layer 1</title>
      <g id="Graphic_5"/>
      <g id="Graphic_2">
        <path d="M 297.63777 255.11812 L 467.7166 255.11812 C 475.5442 255.11812 481.8898 261.46367 481.8898 269.29132 L 481.8898 269.29138 C 481.8898 277.11902 475.5442 283.46457 467.7166 283.46457 L 297.63777 283.46457 C 289.81013 283.46457 283.46457 277.11902 283.46457 269.29138 L 283.46457 269.29132 C 283.46457 261.46367 289.81013 255.11812 297.63777 255.11812 Z" fill="black"/>
      </g>
      <g id="Graphic_3">
        <path d="M 297.63777 325.98426 L 467.7166 325.98426 C 475.5442 325.98426 481.8898 332.3298 481.8898 340.15746 L 481.8898 340.1575 C 481.8898 347.98516 475.5442 354.3307 467.7166 354.3307 L 297.63777 354.3307 C 289.81013 354.3307 283.46457 347.98516 283.46457 340.1575 L 283.46457 340.15746 C 283.46457 332.3298 289.81013 325.98426 297.63777 325.98426 Z" fill="black"/>
      </g>
      <g id="Graphic_4">
        <path d="M 297.63777 396.8504 L 467.7166 396.8504 C 475.5442 396.8504 481.8898 403.19596 481.8898 411.0236 L 481.8898 411.02366 C 481.8898 418.8513 475.5442 425.19686 467.7166 425.19686 L 297.63777 425.19686 C 289.81013 425.19686 283.46457 418.8513 283.46457 411.02366 L 283.46457 411.0236 C 283.46457 403.19596 289.81013 396.8504 297.63777 396.8504 Z" fill="black"/>
      </g>
    </g>
  </g>
</svg>
