<?xml version="1.0" encoding="UTF-8" standalone="no"?>
<!DOCTYPE svg PUBLIC "-//W3C//DTD SVG 1.1//EN" "http://www.w3.org/Graphics/SVG/1.1/DTD/svg11.dtd">
<svg xmlns:dc="http://purl.org/dc/elements/1.1/" xmlns:xl="http://www.w3.org/1999/xlink" xmlns="http://www.w3.org/2000/svg" version="1.1" viewBox="283.46457 212.59843 198.4252 255.11812" width="198.4252" height="255.11812">
  <defs/>
  <metadata> Produced by OmniGraffle 7.17.5\n2020-11-12 00:39:09 +0000</metadata>
  <g id="Canvas_1" fill="none" stroke="none" stroke-opacity="1" fill-opacity="1" stroke-dasharray="none">
    <title>Canvas 1</title>
    <g id="Canvas_1_Layer_1">
      <title>Layer 1</title>
      <g id="Graphic_5"/>
      <g id="Graphic_2">
        <path d="M 297.63777 240.9449 L 467.7166 240.9449 C 475.5442 240.9449 481.8898 247.29045 481.8898 255.1181 L 481.8898 255.11815 C 481.8898 262.9458 475.5442 269.29135 467.7166 269.29135 L 297.63777 269.29135 C 289.81013 269.29135 283.46457 262.9458 283.46457 255.11815 L 283.46457 255.1181 C 283.46457 247.29045 289.81013 240.9449 297.63777 240.9449 Z" fill="black"/>
      </g>
      <g id="Graphic_3">
        <path d="M 297.63777 325.98426 L 467.7166 325.98426 C 475.5442 325.98426 481.8898 332.3298 481.8898 340.15746 L 481.8898 340.1575 C 481.8898 347.98516 475.5442 354.3307 467.7166 354.3307 L 297.63777 354.3307 C 289.81013 354.3307 283.46457 347.98516 283.46457 340.1575 L 283.46457 340.15746 C 283.46457 332.3298 289.81013 325.98426 297.63777 325.98426 Z" fill="black"/>
      </g>
      <g id="Graphic_4">
        <path d="M 297.63777 411.02363 L 467.7166 411.02363 C 475.5442 411.02363 481.8898 417.3692 481.8898 425.19683 L 481.8898 425.1969 C 481.8898 433.02453 475.5442 439.3701 467.7166 439.3701 L 297.63777 439.3701 C 289.81013 439.3701 283.46457 433.02453 283.46457 425.1969 L 283.46457 425.19683 C 283.46457 417.3692 289.81013 411.02363 297.63777 411.02363 Z" fill="black"/>
      </g>
    </g>
  </g>
</svg>
